<svg id="Layer_1" data-name="Layer 1" xmlns="http://www.w3.org/2000/svg" viewBox="0 0 5070.71 2498.6"><defs><style>.cls-1{fill:#3a92cc;}.cls-2{fill:#fff;}.cls-3{fill:#848282;}.cls-4{fill:#2c2c2c;}.cls-5{fill:#a6a4a4;}.cls-6{fill:#666;}.cls-7{fill:#2e8bbf;}</style></defs><path class="cls-1" d="M889.22,1765.4c-283,0-512.48-231.07-512.48-516.1S606.19,733.2,889.22,733.2s512.48,231.06,512.48,516.1S1172.25,1765.4,889.22,1765.4Z"/><path class="cls-2" d="M888.37,1686.26c-235.87,0-427.07-192.55-427.07-430.08S652.5,826.09,888.37,826.09s427.06,192.56,427.06,430.09S1124.23,1686.26,888.37,1686.26Z"/><path class="cls-3" d="M1153.19,1066s5.58-9.4-4.43-14.21c0,0-19.59-7.29-24.61-9.78a68.73,68.73,0,0,0-8.46-3.62s-7.3-20.51-21.23-33-32.55-29.3-48-33.4c0,0-95.2-38.23-206.58-3,0,0-31-25.56-69.8-8.34,0,0-8.11,4.73,4.4,7.29,0,0,22.19,16.83,11.23,30.37,0,0-105.58,81.14-118.89,280.24,0,0,1.76,2.33-15.63,11.22,0,0-64,37.56-68.19,65.4,0,0,.32,3.8,8.14-1.8,0,0,21.69-16.24,40.58-14.9,0,0,24.42.44,37.44-9.88,0,0,6-7.94,11-1.82,0,0,21.53,3.37,32,2.72,0,0,13.36-.67,16.61,9,0,0,5.27,4,7.23-7.37,0,0,8.28-24.34-31.1-46a55.51,55.51,0,0,1,12.92-27.89s20.05-47,31.29-62.53,58-66.8,102.95-83.18c0,0,75.68-28.86,87.9-27.17,0,0,21.47,43.47,6.79,63.18,0,0-2.85,11.72,10.48,5.2,0,0,26.06-17.72,32.5-56.1,0,0,1.34-19,9.49-17.93,0,0,74.66-3.09,85.68-7.83C1084.89,1070.8,1165,1083.49,1153.19,1066Z"/><path class="cls-4" d="M1168,1403.79s8.28-7.09.35-14.89c0,0-16.22-13.25-20.18-17.24a68.12,68.12,0,0,0-6.85-6.17s-.35-21.78-9.55-38.12-21.44-38.29-34.78-47.19c0,0-77.91-67.08-194.62-69.86,0,0-21.13-34.24-63.41-30.53,0,0-9.19,1.84,1.84,8.32,0,0,15.62,23.14.92,32.4,0,0-125.91,42.57-202.19,226.74,0,0,.93,2.78-18.38,5.56,0,0-72.6,14.8-85.46,39.79,0,0-.92,3.71,8.27.94,0,0,25.73-8.34,43.19-.94,0,0,23,8.34,38.6,2.78,0,0,8.27-5.55,11,1.86,0,0,19.31,10.18,29.42,13,0,0,12.86,3.69,12.86,13.88,0,0,3.68,5.54,9.19-4.63,0,0,15.63-20.36-14.71-53.69a55.22,55.22,0,0,1,21.14-22.21s34-37.94,49.63-49,76.28-44.43,124.07-45.36c0,0,80.87-2.78,91.9,2.78,0,0,6.43,48.12-13.78,62,0,0-6.44,10.18,8.26,8.33,0,0,30.34-8.33,48.71-42.57,0,0,7.36-17.6,14.72-13.9,0,0,71.67,21.3,83.62,20.38C1101.75,1386.18,1173.49,1424.16,1168,1403.79Z"/><path class="cls-5" d="M1252.31,1283.94s8.28-7.09.35-14.88c0,0-16.22-13.25-20.18-17.24a69.48,69.48,0,0,0-6.85-6.17s-.35-21.79-9.55-38.12-21.44-38.29-34.78-47.2c0,0-77.91-67.07-194.62-69.85,0,0-21.13-34.24-63.41-30.54,0,0-9.19,1.85,1.84,8.33,0,0,15.62,23.13.92,32.39,0,0-125.91,42.57-202.19,226.75,0,0,.93,2.78-18.38,5.55,0,0-72.6,14.81-85.46,39.8,0,0-.92,3.71,8.27.93,0,0,25.73-8.33,43.19-.93,0,0,23,8.34,38.6,2.78,0,0,8.27-5.55,11,1.86,0,0,19.31,10.17,29.42,12.95,0,0,12.86,3.7,12.86,13.89,0,0,3.68,5.54,9.19-4.63,0,0,15.63-20.36-14.71-53.69A55.22,55.22,0,0,1,779,1323.71s34-38,49.63-49,76.28-44.42,124.07-45.36c0,0,80.87-2.77,91.9,2.79,0,0,6.43,48.12-13.78,62,0,0-6.44,10.18,8.26,8.33,0,0,30.34-8.33,48.71-42.57,0,0,7.36-17.6,14.72-13.9,0,0,71.67,21.29,83.62,20.38C1186.11,1266.34,1257.85,1304.32,1252.31,1283.94Z"/><path d="M1576,1607.55c.84,22.17,20.2,30.31,37.32,30.31,16.84,0,35.93-4.49,35.93-28.9,0-25.82-21.89-28.63-39.86-30.87-30.31-3.09-60.61-16.56-60.61-55.57,0-40.41,30-57.53,62.86-57.53,34.24,0,62.86,16.84,62.86,57h-28.9c-1.41-21-17.4-27.78-34-27.78-14.87,0-32.56,5-32.56,27.5s16.84,25.25,35.65,28.34c34.52,4.49,65.39,14,65.39,59.22,0,43.5-34.52,57.81-66.52,57.81-33.11.84-66.79-18-67.63-59.5Z"/><path d="M1869.59,1664.24l-38.17-68.19h-34v68.19H1766V1467.8h68.76c37,0,59.5,28.9,59.5,64,0,27.22-12.63,49.11-33.12,58.09l40.69,69.6v4.77Zm-35.08-96c16.84,0,29.75-14.87,29.75-36.2,0-20.49-12.63-35.92-29.75-35.92H1796.9v72.12Z"/><path d="M2142.94,1664.24h-30.31l.28-118.15-46.59,69.6h-4.21l-46.58-69.6v118.15h-30.31v-197h11.5l67.64,101.59,67.35-101.59h11.23Z"/><rect class="cls-6" x="1540.61" y="1327.39" width="2960.72" height="14.13"/><path class="cls-7" d="M1631.25,1069.61c-1.81,23.11,10.84,38.88,31.91,38.88s34.32-18.59,34.32-47.33c0-60.28-50-58-88.51-53.52v-13l45.16-116.06h-100V795.23H1783v14.65l-58.4,133c56,16.34,70.44,65.92,70.44,117.75,0,81.13-53.59,134.66-133.06,134.66-71.65,0-121.63-50.15-121.63-125.65Z"/><path class="cls-7" d="M1993.11,795.8c106,0,177,77.75,177,194.94,1.8,119.44-69.85,198.88-177,198.88H1854V795.8Zm-1.2,300.86c43.95,0,73.45-41.69,73.45-104.8,0-61.41-30.1-103.67-73.45-103.67h-33.72v208.47Z"/><path class="cls-7" d="M2392.9,1195.26c-110.79,0-184.84-81.14-184.84-202.83S2282.11,789.6,2392.9,789.6c110.18,0,183.64,81.13,183.64,202.83S2503.08,1195.26,2392.9,1195.26Zm0-96.35c47.57,0,78.87-43.38,78.87-106.48s-31.3-105.92-78.87-105.92c-48.77,0-81.28,42.81-81.28,105.92S2344.13,1098.91,2392.9,1098.91Z"/><path class="cls-7" d="M2852.9,1189.62h-221V795.23h104.16v302H2852.9Z"/><path class="cls-7" d="M3046.17,795.23c86.7,0,143.9,59.72,140.89,147.62,0,87.33-56.6,142-140.89,142H3001v104.23H2896.85V795.23Zm0,202.27c24.68,0,41.54-23.1,41.54-57.47,0-33.81-16.86-55.78-41.54-55.78h-47V997.5Z"/><path class="cls-7" d="M3339.39,1031.87v157.75H3235.22V795.23h104.17V937.78h95.13V795.23h104.16v394.39H3434.52V1031.87Z"/><path class="cls-7" d="M3847.55,1189.62V791.85h32.51l177.62,191.56V795.23h104.16v397.21h-30.1l-180-194.94v192.12Z"/><path class="cls-7" d="M4316.58,1065.11c-.6,24.22,18.67,41.13,47.57,41.13,28.3,0,46.36-13,46.36-35.5,0-32.11-36.73-34.37-58.4-36.06-65.63-4.5-131.26-37.18-131.26-120,0-77.19,56.6-125.08,140.89-125.08,86.1,0,140.29,51.83,138.48,129h-97.54c1.81-24.23-14.45-40.57-39.13-40.57s-40.34,13.53-40.34,36.06c0,17.47,13.24,29.86,46.36,33.81,76.46,7.32,143.9,27.61,143.9,123.95,0,74.93-59,123.39-148.12,123.39-90.31,0-150.52-51.84-147.51-130.15Z"/><polygon class="cls-7" points="3745.19 795.23 3641.03 795.23 3641.03 878.62 3641.03 1106.24 3641.03 1189.62 3745.19 1189.62 3745.19 795.23"/></svg>